<svg width="403" height="74" viewBox="0 0 403 74" fill="none" xmlns="http://www.w3.org/2000/svg">
<path d="M6.02152 73.09C3.80152 73.09 2.30152 72.52 1.52152 71.38C0.741524 70.24 0.351523 68.98 0.351523 67.6V6.94C0.351523 5.56 0.741524 4.33 1.52152 3.25C2.30152 2.11 3.80152 1.54 6.02152 1.54H37.3415C39.5615 1.54 40.7315 3.04 40.8515 6.04C40.9715 9.1 39.8015 10.63 37.3415 10.63H10.9715V64H38.9615C41.1815 64 42.3215 65.47 42.3815 68.41C42.5015 71.53 41.3615 73.09 38.9615 73.09H6.02152ZM34.0115 35.83C34.0115 37.93 33.2615 39.7 31.7615 41.14C30.3215 42.58 28.5515 43.3 26.4515 43.3C24.4115 43.3 22.6715 42.58 21.2315 41.14C19.7915 39.7 19.0715 37.93 19.0715 35.83C19.0715 33.73 19.7915 31.96 21.2315 30.52C22.6715 29.08 24.4115 28.36 26.4515 28.36C28.5515 28.36 30.3215 29.08 31.7615 30.52C33.2615 31.96 34.0115 33.73 34.0115 35.83Z" fill="#B6BE61"/>
<path d="M94.597 58.69C94.597 63.61 92.977 67.24 89.737 69.58C86.557 71.86 83.377 73 80.197 73H65.077C61.897 73 58.807 71.86 55.807 69.58C54.367 68.38 53.257 66.88 52.477 65.08C51.697 63.22 51.307 61.09 51.307 58.69V33.04C51.307 28.18 52.807 24.58 55.807 22.24C57.307 21.16 58.837 20.32 60.397 19.72C62.017 19.06 63.577 18.73 65.077 18.73H80.197C81.637 18.73 83.227 19.03 84.967 19.63C86.707 20.17 88.327 20.92 89.827 21.88C91.267 22.9 92.407 24.31 93.247 26.11C94.147 27.91 94.597 30.04 94.597 32.5V37C94.597 39.88 92.947 41.32 89.647 41.32C86.347 41.32 84.697 39.88 84.697 37V33.13C84.697 31.63 84.217 30.28 83.257 29.08C82.357 27.82 80.797 27.19 78.577 27.19H67.327C65.107 27.19 63.517 27.82 62.557 29.08C61.657 30.28 61.207 31.63 61.207 33.13V58.6C61.207 60.04 61.657 61.39 62.557 62.65C63.517 63.91 65.107 64.54 67.327 64.54H78.577C80.797 64.54 82.357 63.91 83.257 62.65C84.217 61.39 84.697 60.04 84.697 58.6V54.46C84.697 51.64 86.347 50.23 89.647 50.23C92.947 50.23 94.597 51.64 94.597 54.46V58.69ZM149.177 58.69C149.177 63.61 147.557 67.24 144.317 69.58C141.137 71.86 137.957 73 134.777 73H119.657C116.477 73 113.387 71.86 110.387 69.58C108.947 68.38 107.837 66.88 107.057 65.08C106.277 63.22 105.887 61.09 105.887 58.69V33.04C105.887 28.18 107.387 24.58 110.387 22.24C111.887 21.16 113.417 20.32 114.977 19.72C116.597 19.06 118.157 18.73 119.657 18.73H134.777C136.217 18.73 137.807 19.03 139.547 19.63C141.287 20.17 142.907 20.92 144.407 21.88C145.847 22.9 146.987 24.31 147.827 26.11C148.727 27.91 149.177 30.04 149.177 32.5V37C149.177 39.88 147.527 41.32 144.227 41.32C140.927 41.32 139.277 39.88 139.277 37V33.13C139.277 31.63 138.797 30.28 137.837 29.08C136.937 27.82 135.377 27.19 133.157 27.19H121.907C119.687 27.19 118.097 27.82 117.137 29.08C116.237 30.28 115.787 31.63 115.787 33.13V58.6C115.787 60.04 116.237 61.39 117.137 62.65C118.097 63.91 119.687 64.54 121.907 64.54H133.157C135.377 64.54 136.937 63.91 137.837 62.65C138.797 61.39 139.277 60.04 139.277 58.6V54.46C139.277 51.64 140.927 50.23 144.227 50.23C147.527 50.23 149.177 51.64 149.177 54.46V58.69ZM170.367 58.6C170.367 60.04 170.817 61.39 171.717 62.65C172.677 63.91 174.267 64.54 176.487 64.54H187.737C189.957 64.54 191.517 64 192.417 62.92C193.377 61.78 193.857 60.49 193.857 59.05V58.06C193.857 55.24 195.507 53.83 198.807 53.83C202.107 53.83 203.757 55.24 203.757 58.06V59.14C203.757 61.66 203.337 63.73 202.497 65.35C201.717 66.97 200.517 68.38 198.897 69.58C195.717 71.86 192.537 73 189.357 73H174.237C171.057 73 167.967 71.86 164.967 69.58C163.527 68.38 162.417 66.88 161.637 65.08C160.857 63.22 160.467 61.09 160.467 58.69V33.04C160.467 28.18 161.967 24.58 164.967 22.24C166.467 21.16 167.997 20.32 169.557 19.72C171.177 19.06 172.737 18.73 174.237 18.73H189.357C190.797 18.73 192.387 19.03 194.127 19.63C195.867 20.17 197.487 20.92 198.987 21.88C200.427 22.9 201.567 24.31 202.407 26.11C203.307 27.91 203.757 30.04 203.757 32.5V44.65C203.757 46.03 203.337 47.26 202.497 48.34C201.717 49.42 200.247 49.96 198.087 49.96H178.647C176.487 49.96 175.347 48.55 175.227 45.73C175.227 42.91 176.367 41.5 178.647 41.5H193.947L193.857 33.13C193.857 31.63 193.377 30.28 192.417 29.08C191.517 27.82 189.957 27.19 187.737 27.19H176.487C174.267 27.19 172.677 27.82 171.717 29.08C170.817 30.28 170.367 31.63 170.367 33.13V58.6ZM225.123 69.22C225.123 72.1 223.473 73.54 220.173 73.54C216.873 73.54 215.223 72.1 215.223 69.22V33.04C215.223 30.58 215.613 28.45 216.393 26.65C217.173 24.85 218.403 23.38 220.083 22.24C223.263 19.96 226.443 18.82 229.623 18.82H244.113C247.173 18.82 250.353 19.96 253.653 22.24C256.893 24.52 258.513 28.12 258.513 33.04V69.22C258.513 72.1 256.863 73.54 253.563 73.54C250.263 73.54 248.613 72.1 248.613 69.22V33.85C248.613 32.29 248.133 30.79 247.173 29.35L247.263 29.44C246.483 28 244.893 27.28 242.493 27.28H231.243C228.783 27.28 227.163 28 226.383 29.44C225.543 30.7 225.123 32.17 225.123 33.85V69.22ZM281.945 27.28V60.04C281.945 61.6 282.275 62.8 282.935 63.64C283.595 64.48 285.005 64.9 287.165 64.9H289.505C291.845 64.9 292.955 66.28 292.835 69.04C292.835 71.86 291.725 73.27 289.505 73.27H286.535C284.615 73.27 282.815 73.03 281.135 72.55C279.455 72.01 277.835 71.26 276.275 70.3V70.39C273.335 68.47 271.865 65.05 271.865 60.13V27.28H268.355C266.195 27.28 265.055 25.87 264.935 23.05C264.935 20.23 266.075 18.82 268.355 18.82H271.865V9.19C271.865 6.31 273.575 4.87 276.995 4.87C280.295 4.87 281.945 6.31 281.945 9.19V18.82H289.415C291.755 18.82 292.865 20.23 292.745 23.05C292.745 25.87 291.635 27.28 289.415 27.28H281.945ZM310.373 69.22C310.373 72.1 308.723 73.54 305.423 73.54C302.003 73.54 300.293 72.1 300.293 69.22V31.96C300.293 27.04 301.763 23.62 304.703 21.7C307.643 19.78 311.033 18.82 314.873 18.82H325.133C327.353 18.82 328.463 20.23 328.463 23.05C328.583 25.87 327.473 27.28 325.133 27.28H315.593C313.433 27.28 312.023 27.7 311.363 28.54C310.703 29.38 310.373 30.55 310.373 32.05V69.22ZM346.243 69.22C346.243 72.1 344.593 73.54 341.293 73.54C337.933 73.54 336.253 72.1 336.253 69.22V22.78C336.253 19.9 337.933 18.46 341.293 18.46C344.593 18.46 346.243 19.9 346.243 22.78V69.22ZM348.133 7.12C348.133 9.04 347.473 10.66 346.153 11.98C344.833 13.3 343.213 13.96 341.293 13.96C339.373 13.96 337.723 13.3 336.343 11.98C335.023 10.66 334.363 9.04 334.363 7.12C334.363 5.14 335.023 3.49 336.343 2.16999C337.723 0.849997 339.373 0.189999 341.293 0.189999C343.213 0.189999 344.833 0.849997 346.153 2.16999C347.473 3.49 348.133 5.14 348.133 7.12ZM402.038 58.69C402.038 63.61 400.418 67.24 397.178 69.58C393.998 71.86 390.818 73 387.638 73H372.518C369.338 73 366.248 71.86 363.248 69.58C361.808 68.38 360.698 66.88 359.918 65.08C359.138 63.22 358.748 61.09 358.748 58.69V33.04C358.748 28.18 360.248 24.58 363.248 22.24C364.748 21.16 366.278 20.32 367.838 19.72C369.458 19.06 371.018 18.73 372.518 18.73H387.638C389.078 18.73 390.668 19.03 392.408 19.63C394.148 20.17 395.768 20.92 397.268 21.88C398.708 22.9 399.848 24.31 400.688 26.11C401.588 27.91 402.038 30.04 402.038 32.5V37C402.038 39.88 400.388 41.32 397.088 41.32C393.788 41.32 392.138 39.88 392.138 37V33.13C392.138 31.63 391.658 30.28 390.698 29.08C389.798 27.82 388.238 27.19 386.018 27.19H374.768C372.548 27.19 370.958 27.82 369.998 29.08C369.098 30.28 368.648 31.63 368.648 33.13V58.6C368.648 60.04 369.098 61.39 369.998 62.65C370.958 63.91 372.548 64.54 374.768 64.54H386.018C388.238 64.54 389.798 63.91 390.698 62.65C391.658 61.39 392.138 60.04 392.138 58.6V54.46C392.138 51.64 393.788 50.23 397.088 50.23C400.388 50.23 402.038 51.64 402.038 54.46V58.69Z" fill="#F0F31F"/>
</svg>
